<?xml version="1.0" encoding="UTF-8"?>
<svg xmlns="http://www.w3.org/2000/svg" version="1.1" viewBox="0 0 41.3 48.1">
  <defs>
    <style>
      .cls-1 {
        fill: #fff;
      }
    </style>
  </defs>
  <!-- Generator: Adobe Illustrator 28.7.1, SVG Export Plug-In . SVG Version: 1.2.0 Build 142)  -->
  <g>
    <g id="Layer_1">
      <path class="cls-1" d="M-8.7,26.8c0,1.5-7.4-6.6-8.1-4.9-.7,1.7,2.6,19.9,1.1,21.6-1.6,1.7-8.1-13.5-10.5-12.5s-5.3,1.6-8.5,1.6-4.7-.2-6.7-.7-3.8-1.2-5.5-2.2c-1.6-1-3.1-2.3-4.5-3.9-1.2-1.5-2.3-3.1-3.1-4.9s-1.5-3.7-1.9-5.8c-.4-2-.6-4.2-.6-6.5,0-3.7.5-7.1,1.6-10,1.1-3,2.6-5.5,4.7-7.6,2-2.1,4.4-3.7,7.1-4.8,2.7-1.2,5.6-1.7,8.6-1.7s7.1.7,10,2.2c2.9,1.5,5.2,3.4,6.7,5.6,1.6,2.2,14.6-9,14.6-7S-16.4.6-17.1,1.5c-.8.8-1.7,1.2-2.8,1.2s-2.1-.3-2.7-.9c-.6-.6-1.3-1.6-2-2.9-1.2-2.3-2.7-4-4.3-5.2-1.7-1.1-3.7-1.7-6.1-1.7-3.9,0-6.9,1.5-9.2,4.4s-3.4,7.1-3.4,12.5.5,6.6,1.5,9,2.4,4.2,4.3,5.4,4,1.8,6.5,1.8,5-.7,6.9-2,3.3-3.3,4.2-5.9c.4-1.2.9-2.2,1.5-3S-12.4,2.4-11,2.4s-6.7,11-5.9,11.8c.8.7,8.2,11.4,8.2,12.6Z"/>
    </g>
  </g>
</svg>